Abduction_states
version=1
nRows=10
nColumns=41
inDegrees=yes

# SIMM Motion File Header:
name Abduction_states
datacolumns 41
datarows 10
otherdata 1
range 0.00000000 1.53134564
endheader
time	/jointset/ground_thorax/thorax_tilt/value	/jointset/ground_thorax/thorax_tilt/speed	/jointset/ground_thorax/thorax_list/value	/jointset/ground_thorax/thorax_list/speed	/jointset/ground_thorax/thorax_rotation/value	/jointset/ground_thorax/thorax_rotation/speed	/jointset/ground_thorax/thorax_tx/value	/jointset/ground_thorax/thorax_tx/speed	/jointset/ground_thorax/thorax_ty/value	/jointset/ground_thorax/thorax_ty/speed	/jointset/ground_thorax/thorax_tz/value	/jointset/ground_thorax/thorax_tz/speed	/jointset/sternoclavicular/sternoclavicular_r2/value	/jointset/sternoclavicular/sternoclavicular_r2/speed	/jointset/sternoclavicular/sternoclavicular_r3/value	/jointset/sternoclavicular/sternoclavicular_r3/speed	/jointset/unrotscap/unrotscap_r3/value	/jointset/unrotscap/unrotscap_r3/speed	/jointset/unrotscap/unrotscap_r2/value	/jointset/unrotscap/unrotscap_r2/speed	/jointset/acromioclavicular/acromioclavicular_r2/value	/jointset/acromioclavicular/acromioclavicular_r2/speed	/jointset/acromioclavicular/acromioclavicular_r3/value	/jointset/acromioclavicular/acromioclavicular_r3/speed	/jointset/acromioclavicular/acromioclavicular_r1/value	/jointset/acromioclavicular/acromioclavicular_r1/speed	/jointset/unrothum/unrothum_r1/value	/jointset/unrothum/unrothum_r1/speed	/jointset/unrothum/unrothum_r3/value	/jointset/unrothum/unrothum_r3/speed	/jointset/unrothum/unrothum_r2/value	/jointset/unrothum/unrothum_r2/speed	/jointset/shoulder0/elv_angle/value	/jointset/shoulder0/elv_angle/speed	/jointset/shoulder1/shoulder_elv/value	/jointset/shoulder1/shoulder_elv/speed	/jointset/shoulder1/shoulder1_r2/value	/jointset/shoulder1/shoulder1_r2/speed	/jointset/shoulder2/shoulder_rot/value	/jointset/shoulder2/shoulder_rot/speed
      0.00000000	      0.00000000	      0.00000000	      0.00000000	      0.00000000	      0.00000000	      0.00000000	      0.00000000	      0.00000000	      0.00000000	      0.00000000	      0.00000000	      0.00000000	      0.00000000	      0.00000000	     -0.00000000	      0.00000000	      0.00000000	      0.00000000	     -0.00000000	      0.00000000	      0.00000000	      0.00000000	     -0.00000000	      0.00000000	     -0.00000000	      0.00000000	      0.00000000	      0.00000000	      0.00000000	      0.00000000	     -0.00000000	      0.00000000	     30.00000000	      0.00000000	     -0.00000000	      0.00000000	    -30.00000000	      0.00000000	      0.00000000	      0.00000000
      0.01000000	     -0.00000000	     -0.00000000	     -0.00000000	     -0.00000000	     -0.00000000	     -0.00000000	      0.00000000	      0.00000000	      0.00000000	     -0.00000000	     -0.00000000	     -0.00000000	     -0.00065188	     -0.13035654	      0.00027611	      0.05521283	     -0.00027611	     -0.05521283	      0.00065188	      0.13035654	     -0.00013199	     -0.02639434	      0.00106670	      0.21330696	      0.00047949	      0.09588217	     -0.00047949	     -0.09588217	     -0.00106670	     -0.21330696	      0.00013199	      0.02639434	     30.00000000	      0.00000000	      0.00269376	      0.53866848	    -30.00000000	     -0.00000000	      0.00000000	      0.00000000
      0.06000000	     -0.00000000	      0.00000000	     -0.00000000	     -0.00000000	     -0.00000000	     -0.00000000	     -0.00000000	     -0.00000000	     -0.00000000	     -0.00000000	      0.00000000	      0.00000000	     -0.02343108	     -0.78030081	      0.00992429	      0.33049833	     -0.00992429	     -0.33049833	      0.02343108	      0.78030081	     -0.00474428	     -0.15799382	      0.03834110	      1.27683347	      0.01723445	      0.57394077	     -0.01723445	     -0.57394077	     -0.03834110	     -1.27683347	      0.00474428	      0.15799382	     30.00000000	     -0.00000000	      0.09682357	      3.22441403	    -30.00000000	      0.00000000	      0.00000000	      0.00000000
      0.31000000	      0.00000000	      0.00000000	     -0.00000000	     -0.00000000	      0.00000000	      0.00000000	     -0.00000000	     -0.00000000	      0.00000000	      0.00000000	      0.00000000	      0.00000000	     -0.62058150	     -3.98418281	      0.26284883	      1.68751047	     -0.26284883	     -1.68751047	      0.62058150	      3.98418281	     -0.12565416	     -0.80670976	      1.01547919	      6.51945753	      0.45646118	      2.93051723	     -0.45646118	     -2.93051723	     -1.01547919	     -6.51945753	      0.12565416	      0.80670976	     30.00000000	     -0.00000000	      2.56441066	     16.46372125	    -30.00000000	      0.00000000	      0.00000000	     -0.00000000
      1.03155215	      0.00000000	      0.00000000	      0.00000000	      0.00000000	     -0.00000000	     -0.00000000	     -0.00000000	     -0.00000000	      0.00000000	     -0.00000000	      0.00000000	      0.00000000	     -6.71469215	    -12.79747548	      2.84402444	      5.42040234	     -2.84402444	     -5.42040234	      6.71469215	     12.79747548	     -1.35957811	     -2.59120852	     10.98748536	     20.94095625	      4.93891017	      9.41302750	     -4.93891017	     -9.41302750	    -10.98748536	    -20.94095625	      1.35957811	      2.59120852	     30.00000000	     -0.00000000	     27.74692454	     52.88263091	    -30.00000000	     -0.00000000	      0.00000000	      0.00000000
      1.14601108	      0.00000000	      0.00000000	      0.00000000	      0.00000000	     -0.00000000	     -0.00000000	     -0.00000000	     -0.00000000	      0.00000000	     -0.00000000	      0.00000000	      0.00000000	     -8.25608926	    -14.13310994	      3.49688699	      5.98611361	     -3.49688699	     -5.98611361	      8.25608926	     14.13310994	     -1.67167726	     -2.86164524	     13.50972731	     23.12650157	      6.07266608	     10.39543719	     -6.07266608	    -10.39543719	    -13.50972731	    -23.12650157	      1.67167726	      2.86164524	     30.00000000	     -0.00000000	     34.11639441	     58.40183382	    -30.00000000	     -0.00000000	      0.00000000	      0.00000000
      1.25753169	      0.00000000	      0.00000000	      0.00000000	      0.00000000	     -0.00000000	     -0.00000000	     -0.00000000	     -0.00000000	     -0.00000000	     -0.00000000	      0.00000000	      0.00000000	     -9.90395538	    -15.41656159	      4.19484475	      6.52972272	     -4.19484475	     -6.52972272	      9.90395538	     15.41656159	     -2.00533406	     -3.12151609	     16.20618821	     25.22665835	      7.28473397	     11.33946445	     -7.28473397	    -11.33946445	    -16.20618821	    -25.22665835	      2.00533406	      3.12151609	     30.00000000	     -0.00000000	     40.92582303	     63.70540326	    -30.00000000	      0.00000000	      0.00000000	      0.00000000
      1.33693017	      0.00000000	      0.00000000	      0.00000000	      0.00000000	     -0.00000000	     -0.00000000	     -0.00000000	     -0.00000000	     -0.00000000	     -0.00000000	      0.00000000	      0.00000000	    -11.16390110	    -16.31910466	      4.72849787	      6.91199707	     -4.72849787	     -6.91199707	     11.16390110	     16.31910466	     -2.26044548	     -3.30426130	     18.26788142	     26.70352111	      8.21147173	     12.00331903	     -8.21147173	    -12.00331903	    -18.26788142	    -26.70352111	      2.26044548	      3.30426130	     30.00000000	     -0.00000000	     46.13225962	     67.43495540	    -30.00000000	      0.00000000	      0.00000000	      0.00000000
      1.44040084	      0.00000000	      0.00000000	      0.00000000	      0.00000000	     -0.00000000	     -0.00000000	     -0.00000000	     -0.00000000	     -0.00000000	     -0.00000000	      0.00000000	      0.00000000	    -12.91265730	    -17.47944312	      5.46918788	      7.40346129	     -5.46918788	     -7.40346129	     12.91265730	     17.47944312	     -2.61453031	     -3.53920442	     21.12943228	     28.60222347	      9.49774809	     12.85679188	     -9.49774809	    -12.85679188	    -21.12943228	    -28.60222347	      2.61453031	      3.53920442	     30.00000000	     -0.00000000	     53.35859333	     72.22978784	    -30.00000000	      0.00000000	      0.00000000	      0.00000000
      1.53134564	      0.00000000	      0.00000000	      0.00000000	      0.00000000	     -0.00000000	     -0.00000000	     -0.00000000	     -0.00000000	     -0.00000000	     -0.00000000	      0.00000000	      0.00000000	    -14.54784028	    -18.47386580	      6.16177367	      7.82465147	     -6.16177367	     -7.82465147	     14.54784028	     18.47386580	     -2.94561905	     -3.74055324	     23.80513933	     30.22943206	     10.70048705	     13.58822739	    -10.70048705	    -13.58822739	    -23.80513933	    -30.22943206	      2.94561905	      3.74055324	     30.00000000	     -0.00000000	     60.11561181	     76.33901141	    -30.00000000	      0.00000000	      0.00000000	      0.00000000
